# xmcd CD database file generated by OrangeCD 5.2
#
# Track frame offsets:
#	150
#	9683
#	22080
#	31498
#	41875
#	54065
#	63080
#	75653
#	88078
#	100098
#	111965
#	124318
#	135563
#	147770
#	160500
#	169940
#	182198
#	192305
#	206830
#	219753
#
# Disc length: 3066 seconds
#
# Revision: 0
# Processed by: cddbd v1.5.1PL0 Copyright (c) Steve Scherf et al.
# Submitted via: OrangeCD 5.2
#
DISCID=140bf814
DTITLE=Sam Cooke and Jackie Wilson - Two On One
DYEAR=1994
DGENRE=R&B Male 
TTITLE0=Sam Cooke - Wonderful World
TTITLE1=Sam Cooke - You Send Me
TTITLE2=Sam Cooke - Only Sixteen
TTITLE3=Sam Cooke - I Love You  Most Of All
TTITLE4=Sam Cooke - Everybody Likes To Cha Cha Cha
TTITLE5=Sam Cooke - There, I've Said It Again
TTITLE6=Sam Cooke - Win Your Love For Me
TTITLE7=Sam Cooke - When I Fall In Love
TTITLE8=Sam Cooke - Moonlight In Vermont
TTITLE9=Ol ' Man River
TTITLE10=Jackie Wilson - Reet Petite
TTITLE11=Jackie Wilson - To Be Loved
TTITLE12=Jackie Wilson - Lonely Teardrops
TTITLE13=Jackie Wilson - Night
TTITLE14=Jackie Wilson - Thats Why (I Love You So)
TTITLE15=Jackie Wilson - I'm Wanderin'
TTITLE16=Jackie Wilson - Talk That Talk
TTITLE17=Jackie Wilson - Only You , Only Me
TTITLE18=Jackie Wilson - My Empty Arms
TTITLE19=Jackie Wilson - Singing  A Song
EXTD=
EXTT0=
EXTT1=
EXTT2=
EXTT3=
EXTT4=
EXTT5=
EXTT6=
EXTT7=
EXTT8=
EXTT9=
EXTT10=
EXTT11=
EXTT12=
EXTT13=
EXTT14=
EXTT15=
EXTT16=
EXTT17=
EXTT18=
EXTT19=
PLAYORDER=
